<svg width="19" height="18" viewBox="0 0 19 18" fill="none" xmlns="http://www.w3.org/2000/svg">
<path d="M8.75 2.99968H3.5C3.10218 2.99968 2.72064 3.15772 2.43934 3.43902C2.15804 3.72033 2 4.10186 2 4.49968V14.9997C2 15.3975 2.15804 15.779 2.43934 16.0603C2.72064 16.3416 3.10218 16.4997 3.5 16.4997H14C14.3978 16.4997 14.7794 16.3416 15.0607 16.0603C15.342 15.779 15.5 15.3975 15.5 14.9997V9.74968M14.375 1.87468C14.6734 1.57631 15.078 1.40869 15.5 1.40869C15.922 1.40869 16.3266 1.57631 16.625 1.87468C16.9234 2.17305 17.091 2.57772 17.091 2.99968C17.091 3.42164 16.9234 3.82631 16.625 4.12468L9.5 11.2497L6.5 11.9997L7.25 8.99968L14.375 1.87468Z" stroke="#637381" stroke-width="1.44" stroke-linecap="round" stroke-linejoin="round"/>
</svg>
