<svg width="129" height="36" viewBox="0 0 129 36" fill="none" xmlns="http://www.w3.org/2000/svg">
<path d="M8.20312 18.5117H3.82031L3.79688 16.0977H7.47656C8.125 16.0977 8.65625 16.0156 9.07031 15.8516C9.48438 15.6797 9.79297 15.4336 9.99609 15.1133C10.207 14.7852 10.3125 14.3867 10.3125 13.918C10.3125 13.3867 10.2109 12.957 10.0078 12.6289C9.8125 12.3008 9.50391 12.0625 9.08203 11.9141C8.66797 11.7656 8.13281 11.6914 7.47656 11.6914H5.03906V26H1.52344V8.9375H7.47656C8.46875 8.9375 9.35547 9.03125 10.1367 9.21875C10.9258 9.40625 11.5938 9.69141 12.1406 10.0742C12.6875 10.457 13.1055 10.9414 13.3945 11.5273C13.6836 12.1055 13.8281 12.793 13.8281 13.5898C13.8281 14.293 13.668 14.9414 13.3477 15.5352C13.0352 16.1289 12.5391 16.6133 11.8594 16.9883C11.1875 17.3633 10.3086 17.5703 9.22266 17.6094L8.20312 18.5117ZM8.05078 26H2.85938L4.23047 23.2578H8.05078C8.66797 23.2578 9.17188 23.1602 9.5625 22.9648C9.95312 22.7617 10.2422 22.4883 10.4297 22.1445C10.6172 21.8008 10.7109 21.4062 10.7109 20.9609C10.7109 20.4609 10.625 20.0273 10.4531 19.6602C10.2891 19.293 10.0234 19.0117 9.65625 18.8164C9.28906 18.6133 8.80469 18.5117 8.20312 18.5117H4.81641L4.83984 16.0977H9.05859L9.86719 17.0469C10.9062 17.0312 11.7422 17.2148 12.375 17.5977C13.0156 17.9727 13.4805 18.4609 13.7695 19.0625C14.0664 19.6641 14.2148 20.3086 14.2148 20.9961C14.2148 22.0898 13.9766 23.0117 13.5 23.7617C13.0234 24.5039 12.3242 25.0625 11.4023 25.4375C10.4883 25.8125 9.37109 26 8.05078 26ZM24.1406 22.9648V13.3203H27.5156V26H24.3398L24.1406 22.9648ZM24.5156 20.3633L25.5117 20.3398C25.5117 21.1836 25.4141 21.9688 25.2188 22.6953C25.0234 23.4141 24.7305 24.0391 24.3398 24.5703C23.9492 25.0938 23.457 25.5039 22.8633 25.8008C22.2695 26.0898 21.5703 26.2344 20.7656 26.2344C20.1484 26.2344 19.5781 26.1484 19.0547 25.9766C18.5391 25.7969 18.0938 25.5195 17.7188 25.1445C17.3516 24.7617 17.0625 24.2734 16.8516 23.6797C16.6484 23.0781 16.5469 22.3555 16.5469 21.5117V13.3203H19.9219V21.5352C19.9219 21.9102 19.9648 22.2266 20.0508 22.4844C20.1445 22.7422 20.2734 22.9531 20.4375 23.1172C20.6016 23.2812 20.793 23.3984 21.0117 23.4688C21.2383 23.5391 21.4883 23.5742 21.7617 23.5742C22.457 23.5742 23.0039 23.4336 23.4023 23.1523C23.8086 22.8711 24.0938 22.4883 24.2578 22.0039C24.4297 21.5117 24.5156 20.9648 24.5156 20.3633ZM33.6562 13.3203V26H30.2695V13.3203H33.6562ZM30.0586 10.0156C30.0586 9.52344 30.2305 9.11719 30.5742 8.79688C30.918 8.47656 31.3789 8.31641 31.957 8.31641C32.5273 8.31641 32.9844 8.47656 33.3281 8.79688C33.6797 9.11719 33.8555 9.52344 33.8555 10.0156C33.8555 10.5078 33.6797 10.9141 33.3281 11.2344C32.9844 11.5547 32.5273 11.7148 31.957 11.7148C31.3789 11.7148 30.918 11.5547 30.5742 11.2344C30.2305 10.9141 30.0586 10.5078 30.0586 10.0156ZM40.0078 8V26H36.6211V8H40.0078ZM50.2852 23.2344V8H53.6836V26H50.625L50.2852 23.2344ZM42.2695 19.8125V19.5664C42.2695 18.5977 42.3789 17.7188 42.5977 16.9297C42.8164 16.1328 43.1367 15.4492 43.5586 14.8789C43.9805 14.3086 44.5 13.8672 45.1172 13.5547C45.7344 13.2422 46.4375 13.0859 47.2266 13.0859C47.9688 13.0859 48.6172 13.2422 49.1719 13.5547C49.7344 13.8672 50.2109 14.3125 50.6016 14.8906C51 15.4609 51.3203 16.1367 51.5625 16.918C51.8047 17.6914 51.9805 18.5391 52.0898 19.4609V20C51.9805 20.8828 51.8047 21.7031 51.5625 22.4609C51.3203 23.2188 51 23.8828 50.6016 24.4531C50.2109 25.0156 49.7344 25.4531 49.1719 25.7656C48.6094 26.0781 47.9531 26.2344 47.2031 26.2344C46.4141 26.2344 45.7109 26.0742 45.0938 25.7539C44.4844 25.4336 43.9688 24.9844 43.5469 24.4062C43.1328 23.8281 42.8164 23.1484 42.5977 22.3672C42.3789 21.5859 42.2695 20.7344 42.2695 19.8125ZM45.6445 19.5664V19.8125C45.6445 20.3359 45.6836 20.8242 45.7617 21.2773C45.8477 21.7305 45.9844 22.1328 46.1719 22.4844C46.3672 22.8281 46.6172 23.0977 46.9219 23.293C47.2344 23.4805 47.6133 23.5742 48.0586 23.5742C48.6367 23.5742 49.1133 23.4453 49.4883 23.1875C49.8633 22.9219 50.1484 22.5586 50.3438 22.0977C50.5469 21.6367 50.6641 21.1055 50.6953 20.5039V18.9688C50.6719 18.4766 50.6016 18.0352 50.4844 17.6445C50.375 17.2461 50.2109 16.9062 49.9922 16.625C49.7812 16.3438 49.5156 16.125 49.1953 15.9688C48.8828 15.8125 48.5117 15.7344 48.082 15.7344C47.6445 15.7344 47.2695 15.8359 46.957 16.0391C46.6445 16.2344 46.3906 16.5039 46.1953 16.8477C46.0078 17.1914 45.8672 17.5977 45.7734 18.0664C45.6875 18.5273 45.6445 19.0273 45.6445 19.5664ZM65.4141 21.5352C65.4141 21.2305 65.3672 20.957 65.2734 20.7148C65.1875 20.4648 65.0234 20.2383 64.7812 20.0352C64.5391 19.8242 64.1992 19.6172 63.7617 19.4141C63.3242 19.2109 62.7578 19 62.0625 18.7812C61.2891 18.5312 60.5547 18.25 59.8594 17.9375C59.1719 17.625 58.5625 17.2617 58.0312 16.8477C57.5078 16.4258 57.0938 15.9375 56.7891 15.3828C56.4922 14.8281 56.3438 14.1836 56.3438 13.4492C56.3438 12.7383 56.5 12.0938 56.8125 11.5156C57.125 10.9297 57.5625 10.4297 58.125 10.0156C58.6875 9.59375 59.3516 9.26953 60.1172 9.04297C60.8906 8.81641 61.7383 8.70312 62.6602 8.70312C63.918 8.70312 65.0156 8.92969 65.9531 9.38281C66.8906 9.83594 67.6172 10.457 68.1328 11.2461C68.6562 12.0352 68.918 12.9375 68.918 13.9531H65.4258C65.4258 13.4531 65.3203 13.0156 65.1094 12.6406C64.9062 12.2578 64.5938 11.957 64.1719 11.7383C63.7578 11.5195 63.2344 11.4102 62.6016 11.4102C61.9922 11.4102 61.4844 11.5039 61.0781 11.6914C60.6719 11.8711 60.3672 12.1172 60.1641 12.4297C59.9609 12.7344 59.8594 13.0781 59.8594 13.4609C59.8594 13.75 59.9297 14.0117 60.0703 14.2461C60.2188 14.4805 60.4375 14.6992 60.7266 14.9023C61.0156 15.1055 61.3711 15.2969 61.793 15.4766C62.2148 15.6562 62.7031 15.832 63.2578 16.0039C64.1875 16.2852 65.0039 16.6016 65.707 16.9531C66.418 17.3047 67.0117 17.6992 67.4883 18.1367C67.9648 18.5742 68.3242 19.0703 68.5664 19.625C68.8086 20.1797 68.9297 20.8086 68.9297 21.5117C68.9297 22.2539 68.7852 22.918 68.4961 23.5039C68.207 24.0898 67.7891 24.5859 67.2422 24.9922C66.6953 25.3984 66.043 25.707 65.2852 25.918C64.5273 26.1289 63.6797 26.2344 62.7422 26.2344C61.8984 26.2344 61.0664 26.125 60.2461 25.9062C59.4258 25.6797 58.6797 25.3398 58.0078 24.8867C57.3438 24.4336 56.8125 23.8555 56.4141 23.1523C56.0156 22.4492 55.8164 21.6172 55.8164 20.6562H59.3438C59.3438 21.1875 59.4258 21.6367 59.5898 22.0039C59.7539 22.3711 59.9844 22.668 60.2812 22.8945C60.5859 23.1211 60.9453 23.2852 61.3594 23.3867C61.7812 23.4883 62.2422 23.5391 62.7422 23.5391C63.3516 23.5391 63.8516 23.4531 64.2422 23.2812C64.6406 23.1094 64.9336 22.8711 65.1211 22.5664C65.3164 22.2617 65.4141 21.918 65.4141 21.5352ZM78.6094 22.9648V13.3203H81.9844V26H78.8086L78.6094 22.9648ZM78.9844 20.3633L79.9805 20.3398C79.9805 21.1836 79.8828 21.9688 79.6875 22.6953C79.4922 23.4141 79.1992 24.0391 78.8086 24.5703C78.418 25.0938 77.9258 25.5039 77.332 25.8008C76.7383 26.0898 76.0391 26.2344 75.2344 26.2344C74.6172 26.2344 74.0469 26.1484 73.5234 25.9766C73.0078 25.7969 72.5625 25.5195 72.1875 25.1445C71.8203 24.7617 71.5312 24.2734 71.3203 23.6797C71.1172 23.0781 71.0156 22.3555 71.0156 21.5117V13.3203H74.3906V21.5352C74.3906 21.9102 74.4336 22.2266 74.5195 22.4844C74.6133 22.7422 74.7422 22.9531 74.9062 23.1172C75.0703 23.2812 75.2617 23.3984 75.4805 23.4688C75.707 23.5391 75.957 23.5742 76.2305 23.5742C76.9258 23.5742 77.4727 23.4336 77.8711 23.1523C78.2773 22.8711 78.5625 22.4883 78.7266 22.0039C78.8984 21.5117 78.9844 20.9648 78.9844 20.3633ZM87.9375 15.7578V30.875H84.5625V13.3203H87.6914L87.9375 15.7578ZM95.9648 19.5195V19.7656C95.9648 20.6875 95.8555 21.543 95.6367 22.332C95.4258 23.1211 95.1133 23.8086 94.6992 24.3945C94.2852 24.9727 93.7695 25.4258 93.1523 25.7539C92.543 26.0742 91.8398 26.2344 91.043 26.2344C90.2695 26.2344 89.5977 26.0781 89.0273 25.7656C88.457 25.4531 87.9766 25.0156 87.5859 24.4531C87.2031 23.8828 86.8945 23.2227 86.6602 22.4727C86.4258 21.7227 86.2461 20.918 86.1211 20.0586V19.4141C86.2461 18.4922 86.4258 17.6484 86.6602 16.8828C86.8945 16.1094 87.2031 15.4414 87.5859 14.8789C87.9766 14.3086 88.4531 13.8672 89.0156 13.5547C89.5859 13.2422 90.2539 13.0859 91.0195 13.0859C91.8242 13.0859 92.5312 13.2383 93.1406 13.543C93.7578 13.8477 94.2734 14.2852 94.6875 14.8555C95.1094 15.4258 95.4258 16.1055 95.6367 16.8945C95.8555 17.6836 95.9648 18.5586 95.9648 19.5195ZM92.5781 19.7656V19.5195C92.5781 18.9805 92.5312 18.4844 92.4375 18.0312C92.3516 17.5703 92.2109 17.168 92.0156 16.8242C91.8281 16.4805 91.5781 16.2148 91.2656 16.0273C90.9609 15.832 90.5898 15.7344 90.1523 15.7344C89.6914 15.7344 89.2969 15.8086 88.9688 15.957C88.6484 16.1055 88.3867 16.3203 88.1836 16.6016C87.9805 16.8828 87.8281 17.2188 87.7266 17.6094C87.625 18 87.5625 18.4414 87.5391 18.9336V20.5625C87.5781 21.1406 87.6875 21.6602 87.8672 22.1211C88.0469 22.5742 88.3242 22.9336 88.6992 23.1992C89.0742 23.4648 89.5664 23.5977 90.1758 23.5977C90.6211 23.5977 90.9961 23.5 91.3008 23.3047C91.6055 23.1016 91.8516 22.8242 92.0391 22.4727C92.2344 22.1211 92.3711 21.7148 92.4492 21.2539C92.5352 20.793 92.5781 20.2969 92.5781 19.7656ZM101.438 15.7578V30.875H98.0625V13.3203H101.191L101.438 15.7578ZM109.465 19.5195V19.7656C109.465 20.6875 109.355 21.543 109.137 22.332C108.926 23.1211 108.613 23.8086 108.199 24.3945C107.785 24.9727 107.27 25.4258 106.652 25.7539C106.043 26.0742 105.34 26.2344 104.543 26.2344C103.77 26.2344 103.098 26.0781 102.527 25.7656C101.957 25.4531 101.477 25.0156 101.086 24.4531C100.703 23.8828 100.395 23.2227 100.16 22.4727C99.9258 21.7227 99.7461 20.918 99.6211 20.0586V19.4141C99.7461 18.4922 99.9258 17.6484 100.16 16.8828C100.395 16.1094 100.703 15.4414 101.086 14.8789C101.477 14.3086 101.953 13.8672 102.516 13.5547C103.086 13.2422 103.754 13.0859 104.52 13.0859C105.324 13.0859 106.031 13.2383 106.641 13.543C107.258 13.8477 107.773 14.2852 108.188 14.8555C108.609 15.4258 108.926 16.1055 109.137 16.8945C109.355 17.6836 109.465 18.5586 109.465 19.5195ZM106.078 19.7656V19.5195C106.078 18.9805 106.031 18.4844 105.938 18.0312C105.852 17.5703 105.711 17.168 105.516 16.8242C105.328 16.4805 105.078 16.2148 104.766 16.0273C104.461 15.832 104.09 15.7344 103.652 15.7344C103.191 15.7344 102.797 15.8086 102.469 15.957C102.148 16.1055 101.887 16.3203 101.684 16.6016C101.48 16.8828 101.328 17.2188 101.227 17.6094C101.125 18 101.062 18.4414 101.039 18.9336V20.5625C101.078 21.1406 101.188 21.6602 101.367 22.1211C101.547 22.5742 101.824 22.9336 102.199 23.1992C102.574 23.4648 103.066 23.5977 103.676 23.5977C104.121 23.5977 104.496 23.5 104.801 23.3047C105.105 23.1016 105.352 22.8242 105.539 22.4727C105.734 22.1211 105.871 21.7148 105.949 21.2539C106.035 20.793 106.078 20.2969 106.078 19.7656ZM115.125 8V26H111.738V8H115.125ZM121.676 24.5703L125.039 13.3203H128.66L123.562 27.9102C123.453 28.2305 123.305 28.5742 123.117 28.9414C122.938 29.3086 122.691 29.6562 122.379 29.9844C122.074 30.3203 121.688 30.5938 121.219 30.8047C120.758 31.0156 120.191 31.1211 119.52 31.1211C119.199 31.1211 118.938 31.1016 118.734 31.0625C118.531 31.0234 118.289 30.9688 118.008 30.8984V28.4258C118.094 28.4258 118.184 28.4258 118.277 28.4258C118.371 28.4336 118.461 28.4375 118.547 28.4375C118.992 28.4375 119.355 28.3867 119.637 28.2852C119.918 28.1836 120.145 28.0273 120.316 27.8164C120.488 27.6133 120.625 27.3477 120.727 27.0195L121.676 24.5703ZM120.27 13.3203L123.023 22.5078L123.504 26.082L121.207 26.3281L116.648 13.3203H120.27Z" fill="#008060"/>
</svg>
