<svg width="576" height="500" viewBox="0 0 576 500" fill="none" xmlns="http://www.w3.org/2000/svg">
<rect width="576" height="500" rx="8" fill="#F0F0F0"/>
<g clip-path="url(#clip0_2767_67218)">
<path d="M249.006 250.539H245.967V249.312H249.006C249.594 249.312 250.071 249.219 250.436 249.031C250.8 248.844 251.066 248.583 251.232 248.25C251.404 247.917 251.49 247.536 251.49 247.109C251.49 246.719 251.404 246.352 251.232 246.008C251.066 245.664 250.8 245.388 250.436 245.18C250.071 244.966 249.594 244.859 249.006 244.859H246.318V255H244.811V243.625H249.006C249.865 243.625 250.592 243.773 251.186 244.07C251.779 244.367 252.23 244.779 252.537 245.305C252.844 245.826 252.998 246.422 252.998 247.094C252.998 247.823 252.844 248.445 252.537 248.961C252.23 249.477 251.779 249.87 251.186 250.141C250.592 250.406 249.865 250.539 249.006 250.539ZM256.131 247.875V255H254.686V246.547H256.092L256.131 247.875ZM258.771 246.5L258.764 247.844C258.644 247.818 258.529 247.802 258.42 247.797C258.316 247.786 258.196 247.781 258.061 247.781C257.727 247.781 257.433 247.833 257.178 247.938C256.923 248.042 256.706 248.188 256.529 248.375C256.352 248.562 256.212 248.786 256.107 249.047C256.008 249.302 255.943 249.583 255.912 249.891L255.506 250.125C255.506 249.615 255.555 249.135 255.654 248.688C255.758 248.24 255.917 247.844 256.131 247.5C256.344 247.151 256.615 246.88 256.943 246.688C257.277 246.49 257.673 246.391 258.131 246.391C258.235 246.391 258.355 246.404 258.49 246.43C258.626 246.451 258.719 246.474 258.771 246.5ZM259.568 250.867V250.688C259.568 250.078 259.657 249.513 259.834 248.992C260.011 248.466 260.266 248.01 260.6 247.625C260.933 247.234 261.337 246.932 261.811 246.719C262.285 246.5 262.816 246.391 263.404 246.391C263.998 246.391 264.532 246.5 265.006 246.719C265.485 246.932 265.891 247.234 266.225 247.625C266.563 248.01 266.821 248.466 266.998 248.992C267.175 249.513 267.264 250.078 267.264 250.688V250.867C267.264 251.477 267.175 252.042 266.998 252.562C266.821 253.083 266.563 253.539 266.225 253.93C265.891 254.315 265.488 254.617 265.014 254.836C264.545 255.049 264.014 255.156 263.42 255.156C262.826 255.156 262.292 255.049 261.818 254.836C261.344 254.617 260.938 254.315 260.6 253.93C260.266 253.539 260.011 253.083 259.834 252.562C259.657 252.042 259.568 251.477 259.568 250.867ZM261.014 250.688V250.867C261.014 251.289 261.063 251.688 261.162 252.062C261.261 252.432 261.41 252.76 261.607 253.047C261.811 253.333 262.063 253.56 262.365 253.727C262.667 253.888 263.019 253.969 263.42 253.969C263.816 253.969 264.162 253.888 264.459 253.727C264.761 253.56 265.011 253.333 265.209 253.047C265.407 252.76 265.555 252.432 265.654 252.062C265.758 251.688 265.811 251.289 265.811 250.867V250.688C265.811 250.271 265.758 249.878 265.654 249.508C265.555 249.133 265.404 248.802 265.201 248.516C265.003 248.224 264.753 247.995 264.451 247.828C264.154 247.661 263.805 247.578 263.404 247.578C263.008 247.578 262.66 247.661 262.357 247.828C262.061 247.995 261.811 248.224 261.607 248.516C261.41 248.802 261.261 249.133 261.162 249.508C261.063 249.878 261.014 250.271 261.014 250.688ZM274.404 253.359V243H275.857V255H274.529L274.404 253.359ZM268.717 250.867V250.703C268.717 250.057 268.795 249.471 268.951 248.945C269.113 248.414 269.339 247.958 269.631 247.578C269.928 247.198 270.279 246.906 270.686 246.703C271.097 246.495 271.555 246.391 272.061 246.391C272.592 246.391 273.055 246.484 273.451 246.672C273.852 246.854 274.191 247.122 274.467 247.477C274.748 247.826 274.969 248.247 275.131 248.742C275.292 249.237 275.404 249.797 275.467 250.422V251.141C275.41 251.76 275.298 252.318 275.131 252.812C274.969 253.307 274.748 253.729 274.467 254.078C274.191 254.427 273.852 254.695 273.451 254.883C273.05 255.065 272.581 255.156 272.045 255.156C271.55 255.156 271.097 255.049 270.686 254.836C270.279 254.622 269.928 254.323 269.631 253.938C269.339 253.552 269.113 253.099 268.951 252.578C268.795 252.052 268.717 251.482 268.717 250.867ZM270.17 250.703V250.867C270.17 251.289 270.212 251.685 270.295 252.055C270.383 252.424 270.519 252.75 270.701 253.031C270.883 253.312 271.115 253.534 271.396 253.695C271.678 253.852 272.014 253.93 272.404 253.93C272.883 253.93 273.277 253.828 273.584 253.625C273.896 253.422 274.146 253.154 274.334 252.82C274.521 252.487 274.667 252.125 274.771 251.734V249.852C274.709 249.565 274.618 249.289 274.498 249.023C274.383 248.753 274.232 248.513 274.045 248.305C273.863 248.091 273.636 247.922 273.365 247.797C273.1 247.672 272.785 247.609 272.42 247.609C272.024 247.609 271.683 247.693 271.396 247.859C271.115 248.021 270.883 248.245 270.701 248.531C270.519 248.812 270.383 249.141 270.295 249.516C270.212 249.885 270.17 250.281 270.17 250.703ZM283.279 253.047V246.547H284.732V255H283.35L283.279 253.047ZM283.553 251.266L284.154 251.25C284.154 251.812 284.094 252.333 283.975 252.812C283.86 253.286 283.673 253.698 283.412 254.047C283.152 254.396 282.811 254.669 282.389 254.867C281.967 255.06 281.454 255.156 280.85 255.156C280.438 255.156 280.061 255.096 279.717 254.977C279.378 254.857 279.087 254.672 278.842 254.422C278.597 254.172 278.407 253.846 278.271 253.445C278.141 253.044 278.076 252.562 278.076 252V246.547H279.521V252.016C279.521 252.396 279.563 252.711 279.646 252.961C279.735 253.206 279.852 253.401 279.998 253.547C280.149 253.688 280.316 253.786 280.498 253.844C280.686 253.901 280.878 253.93 281.076 253.93C281.691 253.93 282.178 253.812 282.537 253.578C282.896 253.339 283.154 253.018 283.311 252.617C283.472 252.211 283.553 251.76 283.553 251.266ZM290.318 253.969C290.662 253.969 290.98 253.898 291.271 253.758C291.563 253.617 291.803 253.424 291.99 253.18C292.178 252.93 292.285 252.646 292.311 252.328H293.686C293.66 252.828 293.49 253.294 293.178 253.727C292.87 254.154 292.467 254.5 291.967 254.766C291.467 255.026 290.917 255.156 290.318 255.156C289.683 255.156 289.128 255.044 288.654 254.82C288.186 254.596 287.795 254.289 287.482 253.898C287.175 253.508 286.943 253.06 286.787 252.555C286.636 252.044 286.561 251.505 286.561 250.938V250.609C286.561 250.042 286.636 249.505 286.787 249C286.943 248.49 287.175 248.039 287.482 247.648C287.795 247.258 288.186 246.951 288.654 246.727C289.128 246.503 289.683 246.391 290.318 246.391C290.98 246.391 291.558 246.526 292.053 246.797C292.548 247.062 292.936 247.427 293.217 247.891C293.503 248.349 293.66 248.87 293.686 249.453H292.311C292.285 249.104 292.186 248.789 292.014 248.508C291.847 248.227 291.618 248.003 291.326 247.836C291.04 247.664 290.704 247.578 290.318 247.578C289.876 247.578 289.503 247.667 289.201 247.844C288.904 248.016 288.667 248.25 288.49 248.547C288.318 248.839 288.193 249.164 288.115 249.523C288.042 249.878 288.006 250.24 288.006 250.609V250.938C288.006 251.307 288.042 251.672 288.115 252.031C288.188 252.391 288.311 252.716 288.482 253.008C288.66 253.299 288.896 253.534 289.193 253.711C289.495 253.883 289.87 253.969 290.318 253.969ZM298.85 246.547V247.656H294.279V246.547H298.85ZM295.826 244.492H297.271V252.906C297.271 253.193 297.316 253.409 297.404 253.555C297.493 253.701 297.607 253.797 297.748 253.844C297.889 253.891 298.04 253.914 298.201 253.914C298.321 253.914 298.446 253.904 298.576 253.883C298.712 253.857 298.813 253.836 298.881 253.82L298.889 255C298.774 255.036 298.623 255.07 298.436 255.102C298.253 255.138 298.032 255.156 297.771 255.156C297.417 255.156 297.092 255.086 296.795 254.945C296.498 254.805 296.261 254.57 296.084 254.242C295.912 253.909 295.826 253.461 295.826 252.898V244.492ZM306.35 243.625V255H304.842V243.625H306.35ZM310.311 248.227V255H308.857V246.547H310.232L310.311 248.227ZM310.014 250.453L309.342 250.43C309.347 249.852 309.423 249.318 309.568 248.828C309.714 248.333 309.93 247.904 310.217 247.539C310.503 247.174 310.86 246.893 311.287 246.695C311.714 246.492 312.209 246.391 312.771 246.391C313.167 246.391 313.532 246.448 313.865 246.562C314.199 246.672 314.488 246.846 314.732 247.086C314.977 247.326 315.167 247.633 315.303 248.008C315.438 248.383 315.506 248.836 315.506 249.367V255H314.061V249.438C314.061 248.995 313.985 248.641 313.834 248.375C313.688 248.109 313.48 247.917 313.209 247.797C312.938 247.672 312.62 247.609 312.256 247.609C311.829 247.609 311.472 247.685 311.186 247.836C310.899 247.987 310.67 248.195 310.498 248.461C310.326 248.727 310.201 249.031 310.123 249.375C310.05 249.714 310.014 250.073 310.014 250.453ZM315.49 249.656L314.521 249.953C314.527 249.49 314.602 249.044 314.748 248.617C314.899 248.19 315.115 247.81 315.396 247.477C315.683 247.143 316.035 246.88 316.451 246.688C316.868 246.49 317.344 246.391 317.881 246.391C318.334 246.391 318.735 246.451 319.084 246.57C319.438 246.69 319.735 246.875 319.975 247.125C320.219 247.37 320.404 247.685 320.529 248.07C320.654 248.456 320.717 248.914 320.717 249.445V255H319.264V249.43C319.264 248.956 319.188 248.589 319.037 248.328C318.891 248.062 318.683 247.878 318.412 247.773C318.146 247.664 317.829 247.609 317.459 247.609C317.141 247.609 316.86 247.664 316.615 247.773C316.37 247.883 316.165 248.034 315.998 248.227C315.831 248.414 315.704 248.63 315.615 248.875C315.532 249.12 315.49 249.38 315.49 249.656ZM327.889 253.555V249.203C327.889 248.87 327.821 248.581 327.686 248.336C327.555 248.086 327.357 247.893 327.092 247.758C326.826 247.622 326.498 247.555 326.107 247.555C325.743 247.555 325.423 247.617 325.146 247.742C324.876 247.867 324.662 248.031 324.506 248.234C324.355 248.438 324.279 248.656 324.279 248.891H322.834C322.834 248.589 322.912 248.289 323.068 247.992C323.225 247.695 323.449 247.427 323.74 247.188C324.037 246.943 324.391 246.75 324.803 246.609C325.219 246.464 325.683 246.391 326.193 246.391C326.808 246.391 327.35 246.495 327.818 246.703C328.292 246.911 328.662 247.227 328.928 247.648C329.199 248.065 329.334 248.589 329.334 249.219V253.156C329.334 253.438 329.357 253.737 329.404 254.055C329.456 254.372 329.532 254.646 329.631 254.875V255H328.123C328.05 254.833 327.993 254.612 327.951 254.336C327.91 254.055 327.889 253.794 327.889 253.555ZM328.139 249.875L328.154 250.891H326.693C326.282 250.891 325.915 250.924 325.592 250.992C325.269 251.055 324.998 251.151 324.779 251.281C324.561 251.411 324.394 251.576 324.279 251.773C324.165 251.966 324.107 252.193 324.107 252.453C324.107 252.719 324.167 252.961 324.287 253.18C324.407 253.398 324.587 253.573 324.826 253.703C325.071 253.828 325.37 253.891 325.725 253.891C326.167 253.891 326.558 253.797 326.896 253.609C327.235 253.422 327.503 253.193 327.701 252.922C327.904 252.651 328.014 252.388 328.029 252.133L328.646 252.828C328.61 253.047 328.511 253.289 328.35 253.555C328.188 253.82 327.972 254.076 327.701 254.32C327.436 254.56 327.118 254.76 326.748 254.922C326.383 255.078 325.972 255.156 325.514 255.156C324.941 255.156 324.438 255.044 324.006 254.82C323.579 254.596 323.245 254.297 323.006 253.922C322.771 253.542 322.654 253.117 322.654 252.648C322.654 252.195 322.743 251.797 322.92 251.453C323.097 251.104 323.352 250.815 323.686 250.586C324.019 250.352 324.42 250.174 324.889 250.055C325.357 249.935 325.881 249.875 326.459 249.875H328.139ZM337.084 246.547H338.396V254.82C338.396 255.565 338.245 256.201 337.943 256.727C337.641 257.253 337.219 257.651 336.678 257.922C336.141 258.198 335.521 258.336 334.818 258.336C334.527 258.336 334.183 258.289 333.787 258.195C333.396 258.107 333.011 257.953 332.631 257.734C332.256 257.521 331.941 257.232 331.686 256.867L332.443 256.008C332.798 256.435 333.167 256.732 333.553 256.898C333.943 257.065 334.329 257.148 334.709 257.148C335.167 257.148 335.563 257.062 335.896 256.891C336.23 256.719 336.488 256.464 336.67 256.125C336.857 255.792 336.951 255.38 336.951 254.891V248.406L337.084 246.547ZM331.264 250.867V250.703C331.264 250.057 331.339 249.471 331.49 248.945C331.646 248.414 331.868 247.958 332.154 247.578C332.446 247.198 332.798 246.906 333.209 246.703C333.62 246.495 334.084 246.391 334.6 246.391C335.131 246.391 335.594 246.484 335.99 246.672C336.391 246.854 336.73 247.122 337.006 247.477C337.287 247.826 337.508 248.247 337.67 248.742C337.831 249.237 337.943 249.797 338.006 250.422V251.141C337.949 251.76 337.837 252.318 337.67 252.812C337.508 253.307 337.287 253.729 337.006 254.078C336.73 254.427 336.391 254.695 335.99 254.883C335.589 255.065 335.12 255.156 334.584 255.156C334.079 255.156 333.62 255.049 333.209 254.836C332.803 254.622 332.454 254.323 332.162 253.938C331.87 253.552 331.646 253.099 331.49 252.578C331.339 252.052 331.264 251.482 331.264 250.867ZM332.709 250.703V250.867C332.709 251.289 332.751 251.685 332.834 252.055C332.923 252.424 333.055 252.75 333.232 253.031C333.415 253.312 333.646 253.534 333.928 253.695C334.209 253.852 334.545 253.93 334.936 253.93C335.415 253.93 335.811 253.828 336.123 253.625C336.436 253.422 336.683 253.154 336.865 252.82C337.053 252.487 337.199 252.125 337.303 251.734V249.852C337.245 249.565 337.157 249.289 337.037 249.023C336.923 248.753 336.771 248.513 336.584 248.305C336.402 248.091 336.175 247.922 335.904 247.797C335.633 247.672 335.316 247.609 334.951 247.609C334.555 247.609 334.214 247.693 333.928 247.859C333.646 248.021 333.415 248.245 333.232 248.531C333.055 248.812 332.923 249.141 332.834 249.516C332.751 249.885 332.709 250.281 332.709 250.703ZM344.1 255.156C343.511 255.156 342.977 255.057 342.498 254.859C342.024 254.656 341.615 254.372 341.271 254.008C340.933 253.643 340.673 253.211 340.49 252.711C340.308 252.211 340.217 251.664 340.217 251.07V250.742C340.217 250.055 340.318 249.443 340.521 248.906C340.725 248.365 341.001 247.906 341.35 247.531C341.699 247.156 342.094 246.872 342.537 246.68C342.98 246.487 343.438 246.391 343.912 246.391C344.516 246.391 345.037 246.495 345.475 246.703C345.917 246.911 346.279 247.203 346.561 247.578C346.842 247.948 347.05 248.385 347.186 248.891C347.321 249.391 347.389 249.938 347.389 250.531V251.18H341.076V250H345.943V249.891C345.923 249.516 345.844 249.151 345.709 248.797C345.579 248.443 345.37 248.151 345.084 247.922C344.798 247.693 344.407 247.578 343.912 247.578C343.584 247.578 343.282 247.648 343.006 247.789C342.73 247.924 342.493 248.128 342.295 248.398C342.097 248.669 341.943 249 341.834 249.391C341.725 249.781 341.67 250.232 341.67 250.742V251.07C341.67 251.471 341.725 251.849 341.834 252.203C341.949 252.552 342.113 252.859 342.326 253.125C342.545 253.391 342.808 253.599 343.115 253.75C343.428 253.901 343.782 253.977 344.178 253.977C344.688 253.977 345.12 253.872 345.475 253.664C345.829 253.456 346.139 253.177 346.404 252.828L347.279 253.523C347.097 253.799 346.865 254.062 346.584 254.312C346.303 254.562 345.956 254.766 345.545 254.922C345.139 255.078 344.657 255.156 344.1 255.156Z" fill="#212B36"/>
</g>
<defs>
<clipPath id="clip0_2767_67218">
<rect width="121" height="24" fill="white" transform="translate(227.49 238)"/>
</clipPath>
</defs>
</svg>
